<svg width="366" height="256" viewBox="0 0 366 256" fill="none" xmlns="http://www.w3.org/2000/svg">
<g clip-path="url(#clip0_14_319)">
<path d="M77.6649 60.2864L91.507 81.0246C91.507 81.0246 103.309 86.4711 117.102 97.4068L113.8 103.064C113.8 103.064 91.0336 92.8322 85.2074 88.5092L74.5686 70.2043L77.6649 60.2864Z" fill="#A0616A"/>
<path d="M125.379 107.451C126.7 105.33 125.131 101.63 121.876 99.1887C118.62 96.7469 114.91 96.4874 113.589 98.609C112.268 100.731 113.836 104.43 117.092 106.872C120.348 109.314 124.058 109.573 125.379 107.451Z" fill="#A0616A"/>
<path d="M70.8989 42.5827L75.4289 41.1725C75.4289 41.1725 78.0657 41.178 79.5534 44.0206C81.041 46.8631 91.5737 72.2076 91.0745 73.1894C90.5753 74.1712 89.8784 74.3882 90.7729 74.9361C91.6675 75.484 92.4866 75.2062 91.8769 76.0272C91.2671 76.8482 92.1098 78.6519 92.1098 78.6519L80.4897 88.0611L70.8989 42.5827Z" fill="#20C57A"/>
<path d="M53.3239 250.986L58.8504 250.985L61.4794 227.59L53.3228 227.591L53.3239 250.986Z" fill="#A0616A"/>
<path d="M72.2584 250.848C72.4305 251.166 72.5213 252.193 72.5213 252.563C72.5213 253.7 71.6815 254.622 70.6456 254.622H53.5307C52.824 254.622 52.251 253.993 52.251 253.217V252.435C52.251 252.435 51.4044 250.085 53.1475 247.188C53.1475 247.188 55.314 249.456 58.5513 245.903L59.5059 244.005L66.4162 249.552L70.2464 250.069C71.0844 250.182 71.8274 250.052 72.2584 250.848Z" fill="#2F2E41"/>
<path d="M73.3262 245.075L78.7764 246.079L84.9009 223.486L76.8569 222.003L73.3262 245.075Z" fill="#A0616A"/>
<path d="M92.0198 248.382C92.1414 248.727 92.076 249.756 92.0202 250.121C91.8485 251.242 90.8812 251.998 89.8596 251.81L72.9813 248.698C72.2843 248.569 71.8142 247.845 71.9313 247.08L72.0494 246.309C72.0494 246.309 71.5693 243.837 73.7257 241.297C73.7257 241.297 75.5197 243.928 79.2486 241.013L80.4766 239.315L86.454 246.041L90.1532 247.248C90.9625 247.512 91.715 247.518 92.0198 248.382Z" fill="#2F2E41"/>
<path d="M84.6551 125.03C84.6551 125.03 92.0802 134.571 92.0802 143.316C92.0802 152.062 92.2613 179.534 92.2613 179.534C92.2613 179.534 87.9149 222.422 86.8283 226C85.7417 229.578 85.1984 235.541 85.1984 235.541L74.6945 232.758C74.6945 232.758 73.2457 192.41 77.5921 182.869L67.0882 150.273L63.4662 242.497H51.2725C51.2725 242.497 44.9938 194 48.2537 181.279C48.2537 181.279 41.0096 132.782 42.8206 129.999C44.6316 127.217 84.6551 125.03 84.6551 125.03Z" fill="#2F2E41"/>
<path d="M57.6709 30.0234L67.4504 30.8184L70.7102 36.7812C70.7102 36.7812 78.3165 40.3589 79.4031 45.5266C80.4897 50.6944 80.8519 111.117 80.8519 111.117L86.285 119.863L85.9228 127.416L42.4584 129.801V122.539L38.4742 113.9C38.4742 113.9 42.8206 44.7316 43.9072 44.3341C44.9938 43.9366 53.3245 37.5763 53.3245 37.5763L57.6709 30.0234Z" fill="#20C57A"/>
<path d="M62.097 28.5442C68.8983 28.5442 74.4119 22.493 74.4119 15.0285C74.4119 7.56405 68.8983 1.51289 62.097 1.51289C55.2957 1.51289 49.7821 7.56405 49.7821 15.0285C49.7821 22.493 55.2957 28.5442 62.097 28.5442Z" fill="#A0616A"/>
<path d="M71.9337 4.1575C71.3071 2.207 69.5687 1.02367 67.6847 1.06977C67.6048 1.0717 67.525 1.07089 67.446 1.06732C66.4972 1.02475 65.5865 0.669095 64.6562 0.460452C62.9223 0.0715594 61.094 0.201761 59.4204 0.833288C58.9002 1.0296 58.3794 1.27646 57.8293 1.27652C57.2792 1.27661 56.68 0.945559 56.5458 0.36009C56.514 0.890164 56.4822 1.42021 56.4504 1.95026C56.2714 1.52125 56.0924 1.09221 55.9134 0.66318L55.5549 2.37411L54.4064 0.944208C54.5091 1.57446 54.1743 2.20968 53.721 2.61262C53.2677 3.01559 52.7078 3.23849 52.1712 3.48954C49.8549 4.57312 47.6801 6.49159 47.0127 9.15619C46.591 10.8397 46.8115 12.6263 47.035 14.3549C47.2325 15.8831 47.4472 17.4641 48.2041 18.7649C48.6893 19.5988 49.3886 20.3005 49.684 21.2353C49.9593 22.1066 49.855 23.1042 50.2468 23.9202C50.6402 24.7397 51.4524 25.2034 52.2474 25.5148C53.0422 25.8263 53.8872 26.0465 54.5718 26.5884C55.2563 27.1304 56.0508 28.6915 57.5422 28.6075L58.0235 27.615C58.5187 27.1722 56.6862 27.5233 56.667 26.8226C56.6479 26.1219 58.872 25.689 58.5568 25.0793C58.0734 24.1443 57.4194 23.3306 56.8747 22.4371C56.2376 21.3921 55.7366 20.1712 55.9565 18.8959C56.0419 18.3997 56.2535 17.9311 56.5758 17.5707C57.5048 16.5318 58.5406 16.9885 59.5473 17.1371C60.2411 17.2396 61.0698 17.1212 61.4301 16.4624C61.8516 15.6916 61.3818 14.711 61.4393 13.8143C61.5002 12.8641 62.1561 12.085 62.8699 11.5432C63.5838 11.0015 64.3943 10.6069 65.0365 9.96618C65.6787 9.32544 66.1361 8.32445 65.8562 7.42286C68.9002 6.03198 69.3662 5.90042 72.5717 6.74864C72.4189 5.86887 72.205 5.00207 71.9337 4.1575Z" fill="#2F2E41"/>
<path d="M19.9442 177.021V135.997C19.9442 134.872 20.3812 133.794 21.1432 133.042C21.9051 132.289 22.9266 131.925 23.9465 132.043C33.3933 130.648 42.2906 131.311 50.3541 135.099C51.2674 135.099 52.0105 135.914 52.0105 136.917V178.085C52.0105 179.087 51.2674 179.903 50.3541 179.903C41.4781 177.618 32.1163 178.213 22.5697 179.903C21.122 179.903 19.9442 178.61 19.9442 177.021Z" fill="#E6E6E6"/>
<path d="M19.9442 180.673V139.215C19.9442 137.023 21.5692 135.239 23.5667 135.239C32.6001 132.645 41.5294 132.641 50.3541 135.239C51.2674 135.239 52.0105 136.055 52.0105 137.057V177.804C52.0105 178.805 51.2696 179.619 50.3581 179.622C41.6569 177.96 32.3361 179.578 22.5697 183.555C21.122 183.555 19.9442 182.262 19.9442 180.673Z" fill="#F2F2F2"/>
<path d="M40.8038 152.372H32.3568C29.3231 152.372 26.855 149.664 26.855 146.334C26.855 143.005 29.3231 140.296 32.3568 140.296H40.8038C43.8377 140.296 46.3058 143.005 46.3058 146.334C46.3058 149.664 43.8377 152.372 40.8038 152.372Z" fill="#E6E6E6"/>
<path d="M48.5457 70.9433L48.2228 92.3474C48.2228 92.3474 47.1909 109.028 44.6282 127.801L38.5196 128.228C38.5196 128.228 39.2712 98.9178 38.9974 91.2052L39.4293 74.075L48.5457 70.9433Z" fill="#A0616A"/>
<path d="M42.1509 141.068C44.4909 140.981 46.2793 137.404 46.1454 133.078C46.0114 128.753 44.0058 125.317 41.6658 125.405C39.3258 125.492 37.5374 129.069 37.6714 133.395C37.8054 137.72 39.8109 141.155 42.1509 141.068Z" fill="#A0616A"/>
<path d="M48.4508 43.6934L43.7453 43.8815C43.7453 43.8815 41.2379 44.7773 40.6195 47.9843C40.001 51.1913 35.6657 84.3805 36.416 85.1461C37.1663 85.9116 37.8902 85.8827 37.1927 86.7061C36.4951 87.5296 35.6379 87.5419 36.4482 88.1172C37.2586 88.6924 36.9625 90.6932 36.9625 90.6932L49.9769 89.6812L48.4508 43.6934Z" fill="#20C57A"/>
<path d="M358.91 234.924H233.711C232.985 234.924 232.266 234.802 231.573 234.562L231.5 234.529C192.297 213.147 158.686 201.476 128.745 198.851L128.631 198.826C125.67 197.798 123.68 194.816 123.68 191.407V7.78808C123.68 5.28081 124.737 2.99283 126.58 1.51111C128.423 0.0293957 130.729 -0.386376 132.908 0.369045L231.883 34.7275C232.475 34.9333 233.091 35.0374 233.711 35.0374H358.91C362.82 35.0374 366 38.5282 366 42.8186V227.143C366 231.433 362.82 234.924 358.91 234.924ZM231.92 233.502C232.501 233.698 233.103 233.798 233.711 233.798H358.91C362.254 233.798 364.974 230.813 364.974 227.143V42.8187C364.974 39.1487 362.254 36.163 358.91 36.163H233.711C232.986 36.163 232.266 36.0413 231.573 35.8008L132.599 1.44241C130.735 0.794985 128.762 1.15168 127.186 2.41905C125.61 3.6867 124.705 5.64354 124.705 7.78808V191.407C124.705 194.303 126.383 196.837 128.887 197.734C158.935 200.381 192.64 212.081 231.92 233.502Z" fill="#3F3D56"/>
<path d="M237.055 226.586C271.191 213.328 309.274 214.85 349.731 225.264C354.81 226.571 359.679 222.374 359.679 216.649V48.8735C359.679 44.7992 357.148 41.237 353.542 40.2692C310.864 28.815 270.999 26.7076 235.868 40.3184C233.294 41.3156 230.437 40.7753 228.266 38.961C198.662 14.2285 168.364 1.82793 137.161 5.50998C133.079 5.99166 130.001 9.80952 130.001 14.3152V183.92C130.001 188.461 133.131 192.258 137.247 192.728C170.832 196.562 201.692 208.18 230.393 225.972C232.425 227.232 234.854 227.44 237.055 226.586Z" fill="#F2F2F2"/>
<path d="M235.958 217.177C233.633 217.177 231.344 216.476 229.326 215.101C205.222 198.672 178.962 189.074 151.275 186.575C144.784 185.988 139.699 179.912 139.699 172.741V27.8704C139.699 20.4349 144.954 14.3423 151.661 14.0002C171.819 12.9686 196.295 22.8347 228.685 45.0382C231.425 46.9159 234.756 47.4735 237.826 46.5699C268.608 37.5016 301.975 37.2367 339.836 45.7601C345.714 47.0835 349.98 52.8092 349.98 59.375V200.782C349.98 205.049 348.232 209.013 345.182 211.656C342.111 214.318 338.158 215.273 334.338 214.275C298.522 204.919 267.767 205.595 240.314 216.343C238.888 216.901 237.416 217.177 235.958 217.177ZM154.539 15.0532C153.585 15.0532 152.643 15.0768 151.709 15.1247C145.55 15.4388 140.725 21.0372 140.725 27.8704V172.741C140.725 179.33 145.396 184.914 151.359 185.452C179.21 187.967 205.624 197.62 229.867 214.145C232.883 216.201 236.565 216.616 239.969 215.283C267.614 204.46 298.56 203.772 334.576 213.18C338.089 214.097 341.723 213.221 344.547 210.772C347.348 208.344 348.955 204.703 348.955 200.782V59.375C348.955 53.3413 345.033 48.0791 339.63 46.8626C301.929 38.3746 268.716 38.6346 238.092 47.657C234.747 48.6414 231.122 48.0354 228.142 45.9929C197.447 24.9512 173.942 15.0532 154.539 15.0532Z" fill="white"/>
<path d="M233.63 47.4106L232.604 47.421L234.031 216.92L235.057 216.909L233.63 47.4106Z" fill="white"/>
<path d="M149.697 36.2249L149.375 37.2932L221.183 63.3698L221.505 62.3014L149.697 36.2249Z" fill="#3F3D56"/>
<path d="M149.697 57.0862L149.375 58.1546L221.183 84.2311L221.505 83.1628L149.697 57.0862Z" fill="#3F3D56"/>
<path d="M149.697 77.9473L149.375 79.0157L221.183 105.092L221.505 104.024L149.697 77.9473Z" fill="#3F3D56"/>
<path d="M149.697 98.8085L149.375 99.8768L221.183 125.953L221.505 124.885L149.697 98.8085Z" fill="#3F3D56"/>
<path d="M336.975 63.4319H250.912V64.5575H336.975V63.4319Z" fill="#3F3D56"/>
<path d="M336.975 83.1342H250.912V84.2597H336.975V83.1342Z" fill="#3F3D56"/>
<path d="M336.975 102.836H250.912V103.962H336.975V102.836Z" fill="#3F3D56"/>
<path d="M336.975 122.539H250.912V123.664H336.975V122.539Z" fill="#3F3D56"/>
<path d="M336.975 142.241H250.912V143.366H336.975V142.241Z" fill="#3F3D56"/>
<path d="M336.975 161.943H250.912V163.069H336.975V161.943Z" fill="#3F3D56"/>
<path d="M27.8234 246.245C26.764 246.318 26.1786 244.873 26.98 244.032L27.0598 243.684C27.0493 243.656 27.0387 243.628 27.0281 243.6C25.9568 240.796 22.3259 240.816 21.2636 243.624C20.3208 246.116 19.1205 248.612 18.8249 251.247C18.6924 252.41 18.752 253.595 18.9872 254.737C16.7781 249.441 15.6155 243.657 15.6155 237.841C15.6155 236.38 15.6884 234.919 15.8374 233.461C15.96 232.269 16.1289 231.084 16.3475 229.91C17.5299 223.563 20.0901 217.518 23.783 212.469C25.5583 211.404 27.0388 209.739 27.933 207.744C28.2543 207.024 28.506 206.25 28.6252 205.461C28.4232 205.49 27.8635 202.113 28.0158 201.906C27.7343 201.437 27.2304 201.204 26.9228 200.746C25.3935 198.471 23.2866 198.868 22.1866 201.96C19.8369 203.262 19.8141 205.421 21.2559 207.497C22.1732 208.817 22.2992 210.604 23.1041 212.018C23.0212 212.135 22.9351 212.247 22.8523 212.364C21.3339 214.501 20.0207 216.799 18.9136 219.212C19.2265 216.53 18.7645 213.298 17.977 211.215C17.0805 208.842 15.4003 206.843 13.9206 204.791C12.1433 202.326 8.49868 203.402 8.18555 206.526C8.18252 206.556 8.17957 206.587 8.17667 206.617C8.39646 206.753 8.61177 206.898 8.82209 207.05C10.0218 207.921 9.60715 209.962 8.18568 210.203L8.1535 210.208C8.23299 211.077 8.36878 211.938 8.56749 212.785C6.66925 220.842 10.7674 223.777 16.6191 223.908C16.7482 223.981 16.8741 224.054 17.0033 224.123C16.4104 225.955 15.9368 227.834 15.5857 229.739C15.2711 231.422 15.0525 233.123 14.9299 234.832C14.7776 236.987 14.7908 239.154 14.9564 241.305L14.9465 241.229C14.5259 238.859 13.3534 236.645 11.651 235.111C9.11494 232.825 5.53196 231.983 2.796 230.145C1.47899 229.261 -0.208667 230.404 0.0211856 232.08L0.0323747 232.16C0.439751 232.342 0.837184 232.552 1.22139 232.789C1.44117 232.925 1.65648 233.069 1.86681 233.222C3.06647 234.093 2.65187 236.134 1.2304 236.375L1.19818 236.38C1.175 236.384 1.15512 236.387 1.13198 236.391C1.83082 238.212 2.80453 239.902 4.02337 241.36C5.21028 248.393 10.3081 249.061 15.7612 247.012H15.7646C16.3607 249.862 17.2318 252.647 18.3513 255.3H27.5919C27.625 255.187 27.6548 255.071 27.6846 254.958C26.8301 255.017 25.969 254.962 25.1277 254.791C25.8133 253.868 26.4989 252.937 27.1845 252.014C27.201 251.996 27.2143 251.978 27.2276 251.96C27.5753 251.487 27.9264 251.018 28.2741 250.546L28.2743 250.545C28.2961 249.094 28.1374 247.648 27.8234 246.245Z" fill="#F2F2F2"/>
<path d="M131.177 255.33C131.177 255.702 130.905 256 130.567 256H0.68212C0.343694 256 0.0718994 255.702 0.0718994 255.33C0.0718994 254.959 0.343694 254.661 0.68212 254.661H130.567C130.905 254.661 131.177 254.959 131.177 255.33Z" fill="#CCCCCC"/>
<path d="M340.59 219.729C347.104 219.729 352.384 213.933 352.384 206.784C352.384 199.636 347.104 193.84 340.59 193.84C334.076 193.84 328.796 199.636 328.796 206.784C328.796 213.933 334.076 219.729 340.59 219.729Z" fill="#20C57A"/>
<path d="M346.113 206.297L338.795 201.659C338.454 201.443 338.026 201.714 338.026 202.147V206.222H335.831C335.548 206.222 335.318 206.474 335.318 206.784C335.318 207.095 335.548 207.347 335.831 207.347H338.026V211.422C338.026 211.855 338.454 212.126 338.795 211.909L346.113 207.272C346.455 207.055 346.455 206.514 346.113 206.297Z" fill="white"/>
<path d="M172.64 170.297C173.1 164.529 175.282 159.018 178.774 154.682C182.176 150.457 186.826 147.56 191.841 146.379C194.64 145.72 197.54 145.591 200.375 146.035C201.054 146.142 201.035 147.324 200.35 147.217C195.525 146.461 190.538 147.384 186.203 149.829C181.759 152.336 178.202 156.412 176.005 161.327C174.749 164.138 173.965 167.206 173.717 170.325C173.657 171.08 172.58 171.057 172.64 170.297Z" fill="white"/>
<path d="M199.181 141.292L207.469 145.78C207.77 145.943 207.82 146.482 207.564 146.715L199.718 153.832C199.187 154.314 198.44 153.463 198.975 152.977L206.821 145.86L206.915 146.794L198.627 142.306C198.005 141.969 198.564 140.958 199.181 141.292Z" fill="white"/>
</g>
<defs>
<clipPath id="clip0_14_319">
<rect width="366" height="256" fill="white"/>
</clipPath>
</defs>
</svg>
