<svg width="366" height="256" viewBox="0 0 366 256" fill="none" xmlns="http://www.w3.org/2000/svg">
<g clip-path="url(#clip0_11_70)">
<path d="M133.182 194.187C132.074 191.88 131.952 189.305 132.839 186.927C133.726 184.549 135.562 182.525 138.016 181.221C138.834 180.789 138.087 179.67 137.265 180.104C134.45 181.564 132.349 183.871 131.359 186.586C130.37 189.302 130.561 192.238 131.897 194.839C132.273 195.602 133.555 194.944 133.182 194.187Z" fill="#3F3D56"/>
<path d="M133.608 195.926C131.6 192.836 132.073 189.139 132.795 185.798C133.549 182.31 134.537 178.769 133.682 175.222C133.294 173.5 132.376 171.902 131.026 170.596C130.376 169.983 129.325 170.899 129.974 171.511C132.498 173.893 132.791 177.348 132.382 180.417C131.899 184.037 130.53 187.564 130.7 191.242C130.744 193.107 131.301 194.937 132.323 196.578C132.426 196.72 132.588 196.822 132.776 196.861C132.964 196.901 133.162 196.876 133.328 196.791C133.495 196.707 133.618 196.569 133.67 196.408C133.722 196.246 133.7 196.073 133.608 195.926Z" fill="#3F3D56"/>
<path d="M144.382 205.791H119.078C118.486 205.791 117.919 205.586 117.5 205.223C117.082 204.859 116.846 204.366 116.846 203.852V197.396C116.848 195.737 117.608 194.146 118.958 192.973C120.309 191.8 122.14 191.14 124.05 191.138H127.761C127.958 191.138 128.148 191.07 128.287 190.948C128.427 190.827 128.505 190.663 128.505 190.492V187.475C128.506 187.189 128.637 186.915 128.869 186.713C129.102 186.511 129.417 186.398 129.746 186.397H133.715C134.044 186.398 134.359 186.511 134.592 186.713C134.824 186.915 134.955 187.189 134.955 187.475V190.492C134.956 190.663 135.034 190.827 135.174 190.948C135.313 191.07 135.502 191.138 135.7 191.138H139.411C141.321 191.14 143.152 191.8 144.503 192.973C145.853 194.146 146.613 195.737 146.615 197.396V203.852C146.615 204.366 146.379 204.859 145.961 205.223C145.542 205.586 144.974 205.791 144.382 205.791Z" fill="#CCCCCC"/>
<path d="M132.119 167.02C132.652 169.476 131.993 171.646 130.646 171.866C129.3 172.087 127.776 170.274 127.244 167.818C126.711 165.362 128.349 161.278 128.349 161.278C128.349 161.278 131.587 164.564 132.119 167.02Z" fill="#20C57A"/>
<path d="M142.337 178.447C140.65 180.471 138.382 181.547 137.273 180.849C136.163 180.151 136.631 177.944 138.318 175.919C140.005 173.895 144.546 172.121 144.546 172.121C144.546 172.121 144.024 176.422 142.337 178.447Z" fill="#20C57A"/>
<path d="M86.5433 39.0351C85.4352 36.7284 85.3135 34.1535 86.2 31.7756C87.0866 29.3977 88.923 27.3737 91.3775 26.0691C92.1948 25.6375 91.4477 24.5189 90.6262 24.9527C87.8109 26.4129 85.7097 28.7191 84.7204 31.4346C83.7311 34.1501 83.9224 37.0865 85.258 39.6877C85.6335 40.4504 86.9162 39.7925 86.5433 39.0351Z" fill="#3F3D56"/>
<path d="M86.969 40.774C84.9614 37.6846 85.4339 33.9875 86.156 30.6466C86.9098 27.159 87.8979 23.6179 87.043 20.0708C86.6552 18.3487 85.7374 16.75 84.387 15.4449C83.7368 14.8314 82.6863 15.7475 83.3345 16.3591C85.8594 18.7411 86.1521 22.1966 85.7426 25.2654C85.2596 28.885 83.8906 32.4122 84.0606 36.0903C84.105 37.9559 84.6615 39.7854 85.6838 41.4266C85.7869 41.5685 85.9494 41.67 86.137 41.7098C86.3246 41.7495 86.5227 41.7244 86.6894 41.6398C86.8562 41.5551 86.9785 41.4175 87.0307 41.256C87.0829 41.0945 87.0607 40.9217 86.969 40.774Z" fill="#3F3D56"/>
<path d="M97.7435 50.6397H72.4393C71.8474 50.6392 71.2799 50.4346 70.8613 50.0711C70.4427 49.7075 70.2073 49.2145 70.2066 48.7003V42.2441C70.2088 40.5851 70.9685 38.9945 72.3191 37.8214C73.6696 36.6483 75.5007 35.9884 77.4107 35.9865H81.1221C81.3194 35.9863 81.5086 35.9182 81.6481 35.797C81.7877 35.6758 81.8661 35.5115 81.8664 35.3401V32.3232C81.8667 32.0376 81.9975 31.7637 82.2301 31.5617C82.4626 31.3597 82.7779 31.2461 83.1068 31.2458H87.076C87.4049 31.2461 87.7202 31.3597 87.9527 31.5617C88.1853 31.7637 88.3161 32.0376 88.3164 32.3232V35.3401C88.3166 35.5115 88.3951 35.6758 88.5347 35.797C88.6742 35.9182 88.8634 35.9863 89.0607 35.9865H92.7721C94.6821 35.9884 96.5132 36.6483 97.8637 37.8214C99.2143 38.9945 99.974 40.5851 99.9762 42.2441V48.7003C99.9755 49.2145 99.7401 49.7075 99.3215 50.0711C98.9029 50.4346 98.3354 50.6392 97.7435 50.6397Z" fill="#CCCCCC"/>
<path d="M85.4803 11.8689C86.0131 14.3249 85.3535 16.4946 84.0071 16.7149C82.6607 16.9353 81.1373 15.1229 80.6045 12.6669C80.0717 10.2109 81.7103 6.12683 81.7103 6.12683C81.7103 6.12683 84.9476 9.41291 85.4803 11.8689Z" fill="#20C57A"/>
<path d="M95.698 23.2951C94.0109 25.3196 91.7435 26.395 90.6336 25.6972C89.5238 24.9993 89.9918 22.7924 91.6789 20.768C93.3661 18.7435 97.9071 16.9695 97.9071 16.9695C97.9071 16.9695 97.3852 21.2707 95.698 23.2951Z" fill="#20C57A"/>
<path d="M36.2197 117.226H15.8771V123.69H36.2197V117.226Z" fill="#20C57A"/>
<path d="M36.2197 138.343H15.8771V144.808H36.2197V138.343Z" fill="#20C57A"/>
<path d="M160.26 255.569H8.43471C6.19845 255.567 4.05451 254.794 2.47324 253.421C0.891965 252.047 0.0025022 250.185 -4.76837e-06 248.242V7.3266C0.0025022 5.38413 0.891965 3.52185 2.47324 2.14832C4.05451 0.774787 6.19845 0.00217761 8.43471 0H160.26C162.496 0.00218672 164.64 0.774796 166.221 2.14833C167.802 3.52186 168.692 5.38414 168.694 7.3266V248.242C168.692 250.185 167.802 252.047 166.221 253.421C164.64 254.794 162.496 255.567 160.26 255.569ZM8.43471 0.861953C6.46155 0.863892 4.56985 1.54561 3.17461 2.75754C1.77938 3.96948 0.994547 5.61266 0.992315 7.3266V248.242C0.994547 249.956 1.77938 251.6 3.17461 252.812C4.56985 254.023 6.46155 254.705 8.43471 254.707H160.26C162.233 254.705 164.124 254.023 165.52 252.812C166.915 251.6 167.7 249.956 167.702 248.242V7.3266C167.7 5.61266 166.915 3.96948 165.52 2.75754C164.124 1.54561 162.233 0.863892 160.26 0.861953H8.43471Z" fill="#3F3D56"/>
<path d="M168.198 49.7574H0.49616V50.6193H168.198V49.7574Z" fill="#3F3D56"/>
<path d="M168.198 101.488H0.49616V102.35H168.198V101.488Z" fill="#3F3D56"/>
<path d="M168.198 153.219H0.49616V154.081H168.198V153.219Z" fill="#3F3D56"/>
<path d="M168.198 204.95H0.49616V205.812H168.198V204.95Z" fill="#3F3D56"/>
<path d="M34.7312 154.29H17.8617C17.204 154.289 16.5735 154.062 16.1084 153.658C15.6433 153.254 15.3817 152.706 15.381 152.135V110.33C15.3817 109.759 15.6433 109.211 16.1084 108.807C16.5735 108.403 17.204 108.176 17.8617 108.175H34.7312C35.3889 108.176 36.0195 108.403 36.4845 108.807C36.9496 109.211 37.2112 109.759 37.212 110.33V152.135C37.2112 152.706 36.9496 153.254 36.4845 153.658C36.0195 154.062 35.3889 154.289 34.7312 154.29ZM17.8617 109.037C17.4671 109.037 17.0888 109.174 16.8097 109.416C16.5307 109.659 16.3737 109.987 16.3733 110.33V152.135C16.3737 152.477 16.5307 152.806 16.8097 153.048C17.0888 153.291 17.4671 153.427 17.8617 153.428H34.7312C35.1258 153.427 35.5042 153.291 35.7832 153.048C36.0623 152.806 36.2192 152.477 36.2197 152.135V110.33C36.2192 109.987 36.0623 109.659 35.7832 109.416C35.5042 109.174 35.1258 109.037 34.7312 109.037H17.8617Z" fill="#3F3D56"/>
<path d="M67.4777 117.226H47.1352V123.69H67.4777V117.226Z" fill="#20C57A"/>
<path d="M67.4777 138.343H47.1352V144.808H67.4777V138.343Z" fill="#20C57A"/>
<path d="M65.9892 154.29H49.1198C48.4621 154.289 47.8315 154.062 47.3665 153.658C46.9014 153.254 46.6398 152.706 46.639 152.135V110.33C46.6398 109.759 46.9014 109.211 47.3665 108.807C47.8315 108.403 48.4621 108.176 49.1198 108.175H65.9892C66.647 108.176 67.2775 108.403 67.7426 108.807C68.2077 109.211 68.4693 109.759 68.47 110.33V152.135C68.4693 152.706 68.2077 153.254 67.7426 153.658C67.2775 154.062 66.647 154.289 65.9892 154.29ZM49.1198 109.037C48.7252 109.037 48.3468 109.174 48.0678 109.416C47.7887 109.659 47.6318 109.987 47.6313 110.33V152.135C47.6318 152.477 47.7887 152.806 48.0678 153.048C48.3468 153.291 48.7252 153.427 49.1198 153.428H65.9892C66.3839 153.427 66.7622 153.291 67.0413 153.048C67.3203 152.806 67.4773 152.477 67.4777 152.135V110.33C67.4773 109.987 67.3203 109.659 67.0413 109.416C66.7622 109.174 66.3839 109.037 65.9892 109.037H49.1198Z" fill="#3F3D56"/>
<path d="M117.094 65.0774H96.7512V71.5421H117.094V65.0774Z" fill="#20C57A"/>
<path d="M117.094 86.1953H96.7512V92.6599H117.094V86.1953Z" fill="#20C57A"/>
<path d="M115.605 102.141H98.7358C98.0781 102.141 97.4475 101.914 96.9824 101.51C96.5174 101.106 96.2558 100.558 96.255 99.9865V58.1818C96.2558 57.6105 96.5174 57.0628 96.9824 56.6588C97.4475 56.2548 98.0781 56.0276 98.7358 56.0269H115.605C116.263 56.0276 116.894 56.2548 117.359 56.6588C117.824 57.0628 118.085 57.6105 118.086 58.1818V99.9865C118.085 100.558 117.824 101.106 117.359 101.51C116.894 101.914 116.263 102.141 115.605 102.141ZM98.7358 56.8889C98.3412 56.8893 97.9628 57.0256 97.6838 57.268C97.4047 57.5104 97.2477 57.839 97.2473 58.1818V99.9865C97.2477 100.329 97.4047 100.658 97.6838 100.9C97.9628 101.143 98.3412 101.279 98.7358 101.279H115.605C116 101.279 116.378 101.143 116.657 100.9C116.936 100.658 117.093 100.329 117.094 99.9865V58.1818C117.093 57.839 116.936 57.5104 116.657 57.268C116.378 57.0256 116 56.8893 115.605 56.8889H98.7358Z" fill="#3F3D56"/>
<path d="M148.352 65.0774H128.009V71.5421H148.352V65.0774Z" fill="#20C57A"/>
<path d="M148.352 86.1953H128.009V92.6599H148.352V86.1953Z" fill="#20C57A"/>
<path d="M146.863 102.141H129.994C129.336 102.141 128.706 101.914 128.241 101.51C127.775 101.106 127.514 100.558 127.513 99.9865V58.1818C127.514 57.6105 127.775 57.0628 128.241 56.6588C128.706 56.2548 129.336 56.0276 129.994 56.0269H146.863C147.521 56.0276 148.152 56.2548 148.617 56.6588C149.082 57.0628 149.343 57.6105 149.344 58.1818V99.9865C149.343 100.558 149.082 101.106 148.617 101.51C148.152 101.914 147.521 102.141 146.863 102.141ZM129.994 56.8889C129.599 56.8893 129.221 57.0256 128.942 57.268C128.663 57.5104 128.506 57.839 128.505 58.1818V99.9865C128.506 100.329 128.663 100.658 128.942 100.9C129.221 101.143 129.599 101.279 129.994 101.279H146.863C147.258 101.279 147.636 101.143 147.915 100.9C148.194 100.658 148.351 100.329 148.352 99.9865V58.1818C148.351 57.839 148.194 57.5104 147.915 57.268C147.636 57.0256 147.258 56.8893 146.863 56.8889H129.994Z" fill="#3F3D56"/>
<path d="M92.4295 113.365L73.387 119.58L76.0049 125.632L95.0474 119.416L92.4295 113.365Z" fill="#20C57A"/>
<path d="M100.981 133.133L81.9388 139.349L84.5567 145.4L103.599 139.185L100.981 133.133Z" fill="#20C57A"/>
<path d="M89.3802 153.808C88.8756 153.807 88.3834 153.673 87.9688 153.423C87.5542 153.174 87.237 152.82 87.0592 152.41L70.1301 113.277C69.8995 112.742 69.9226 112.149 70.1944 111.629C70.4661 111.109 70.9643 110.704 71.5796 110.502L87.3711 105.348C87.6761 105.248 88.0006 105.202 88.3263 105.211C88.6519 105.22 88.9722 105.285 89.2689 105.402C89.5655 105.519 89.8328 105.686 90.0554 105.893C90.2779 106.099 90.4514 106.342 90.566 106.607L107.495 145.74C107.726 146.275 107.703 146.867 107.431 147.388C107.159 147.908 106.661 148.313 106.046 148.515L90.2541 153.669C89.9748 153.761 89.6787 153.808 89.3802 153.808ZM88.2446 106.071C88.0654 106.071 87.8878 106.1 87.7202 106.154L71.9288 111.309C71.5596 111.43 71.2606 111.673 71.0976 111.985C70.9345 112.297 70.9206 112.653 71.059 112.974L87.9881 152.107C88.0568 152.266 88.161 152.411 88.2945 152.535C88.428 152.659 88.5884 152.759 88.7664 152.83C88.9444 152.9 89.1366 152.939 89.332 152.944C89.5273 152.95 89.7221 152.922 89.905 152.862L105.696 147.708C106.066 147.587 106.365 147.344 106.528 147.032C106.691 146.72 106.705 146.364 106.566 146.043L89.6371 106.91C89.5304 106.664 89.3401 106.452 89.0913 106.302C88.8426 106.152 88.5473 106.072 88.2446 106.071Z" fill="#3F3D56"/>
<path d="M23.9595 62.0787L4.91696 68.2942L7.53485 74.3457L26.5774 68.1302L23.9595 62.0787Z" fill="#20C57A"/>
<path d="M32.5113 81.8469L13.4688 88.0624L16.0867 94.1139L35.1292 87.8984L32.5113 81.8469Z" fill="#20C57A"/>
<path d="M20.9101 102.522C20.4056 102.521 19.9133 102.387 19.4988 102.137C19.0842 101.887 18.7669 101.534 18.5892 101.124L1.66006 61.9907C1.42949 61.4557 1.45261 60.8631 1.72435 60.3429C1.99608 59.8227 2.49425 59.4173 3.1096 59.2157L18.9011 54.0614C19.206 53.9619 19.5306 53.9154 19.8562 53.9248C20.1818 53.9342 20.5021 53.9992 20.7988 54.1162C21.0955 54.2331 21.3628 54.3997 21.5853 54.6064C21.8079 54.813 21.9814 55.0558 22.0959 55.3207L39.025 94.4537C39.2556 94.9887 39.2325 95.5813 38.9608 96.1015C38.689 96.6217 38.1908 97.0271 37.5755 97.2287L21.784 102.383C21.5047 102.475 21.2087 102.522 20.9101 102.522ZM19.7746 54.7849C19.5954 54.7851 19.4177 54.8134 19.2501 54.8683L3.45876 60.0225C3.08952 60.1435 2.79058 60.3868 2.62753 60.6989C2.46447 61.0111 2.45061 61.3667 2.58897 61.6877L19.5181 100.821C19.5868 100.98 19.6909 101.125 19.8245 101.249C19.958 101.373 20.1184 101.473 20.2964 101.543C20.4744 101.613 20.6666 101.652 20.8619 101.658C21.0573 101.664 21.252 101.636 21.435 101.576L37.2263 96.4219C37.5956 96.3009 37.8945 96.0577 38.0576 95.7455C38.2206 95.4334 38.2345 95.0778 38.0961 94.7567L21.167 55.6237C21.0604 55.3777 20.87 55.1657 20.6213 55.0159C20.3726 54.866 20.0772 54.7855 19.7746 54.7849Z" fill="#3F3D56"/>
<path d="M311.092 107.744C319.587 107.744 326.473 101.763 326.473 94.3838C326.473 87.0052 319.587 81.0236 311.092 81.0236C302.597 81.0236 295.711 87.0052 295.711 94.3838C295.711 101.763 302.597 107.744 311.092 107.744Z" fill="#2F2E41"/>
<path d="M242.761 155.355C243.488 155.599 244.267 155.702 245.045 155.657C245.822 155.611 246.579 155.418 247.261 155.091C247.943 154.764 248.535 154.312 248.994 153.765C249.453 153.218 249.768 152.59 249.918 151.926L292.209 128.748L284.511 121.221L245.343 146.386C244.042 146.241 242.724 146.517 241.641 147.16C240.558 147.803 239.784 148.769 239.466 149.874C239.148 150.98 239.307 152.148 239.915 153.158C240.522 154.168 241.535 154.95 242.761 155.355Z" fill="#FFB8B8"/>
<path d="M283.38 134.91C283.005 134.911 282.637 134.83 282.308 134.674C281.979 134.519 281.701 134.294 281.498 134.021L276.6 127.41C276.291 126.993 276.178 126.489 276.284 126.001C276.39 125.514 276.707 125.08 277.17 124.789L293.558 114.5C294.353 114.001 295.256 113.645 296.212 113.454C297.168 113.263 298.159 113.241 299.125 113.388C300.092 113.536 301.014 113.85 301.839 114.312C302.663 114.775 303.372 115.376 303.924 116.081C304.475 116.786 304.859 117.579 305.052 118.415C305.244 119.251 305.242 120.112 305.045 120.946C304.848 121.781 304.46 122.573 303.904 123.276C303.348 123.978 302.636 124.577 301.809 125.036L284.578 134.606C284.22 134.805 283.805 134.911 283.38 134.91Z" fill="#2F2E41"/>
<path d="M290.697 250.333L284.615 250.332L281.721 229.952L290.699 229.953L290.697 250.333Z" fill="#FFB8B8"/>
<path d="M280.269 248.823H292.001V255.238H272.883C272.883 254.396 273.074 253.562 273.445 252.783C273.817 252.005 274.361 251.298 275.047 250.702C275.732 250.106 276.547 249.633 277.443 249.311C278.339 248.989 279.299 248.823 280.269 248.823Z" fill="#2F2E41"/>
<path d="M319.094 246.382L313.238 247.811L304.109 228.869L312.753 226.761L319.094 246.382Z" fill="#FFB8B8"/>
<path d="M308.585 247.377L319.879 244.623L321.876 250.8L303.47 255.288C303.208 254.477 303.132 253.629 303.247 252.792C303.362 251.956 303.666 251.147 304.141 250.412C304.616 249.678 305.253 249.032 306.015 248.511C306.778 247.99 307.651 247.605 308.585 247.377Z" fill="#2F2E41"/>
<path d="M335.483 215.106L311.868 190.898L326.198 175.795C326.408 175.573 326.672 175.395 326.971 175.273C327.27 175.151 327.597 175.088 327.927 175.089C328.258 175.09 328.584 175.154 328.882 175.278C329.18 175.401 329.443 175.581 329.652 175.803L351.335 198.918L335.483 215.106Z" fill="#20C57A"/>
<path d="M312.821 191.078C313.169 190.534 313.601 190.033 314.104 189.59L327.782 177.545C328.318 177.071 329.04 176.789 329.804 176.756C331.367 176.692 333.93 176.829 334.644 178.319L316.178 191.442L312.821 191.078Z" fill="#F2F2F2"/>
<path d="M336.304 220.229C335.251 220.201 334.227 219.92 333.348 219.415L333.283 219.357L311.654 190.624L315.243 190.323L334.478 177.291C334.721 177.126 335 177.007 335.298 176.941C335.597 176.875 335.908 176.863 336.212 176.906C336.515 176.949 336.806 177.047 337.064 177.192C337.323 177.337 337.544 177.528 337.714 177.751L358.739 205.393C359.062 205.82 359.178 206.34 359.063 206.84C358.948 207.341 358.611 207.783 358.125 208.069L337.779 219.986C337.31 220.148 336.809 220.231 336.304 220.229Z" fill="#20C57A"/>
<path d="M328.655 200.574C328.451 200.574 328.251 200.531 328.071 200.448C327.891 200.365 327.738 200.245 327.624 200.099L325.139 196.893C324.956 196.655 324.888 196.365 324.951 196.084C325.014 195.804 325.203 195.557 325.475 195.397L338.222 187.943C338.495 187.784 338.83 187.725 339.153 187.78C339.475 187.835 339.76 187.998 339.944 188.235L342.429 191.441C342.612 191.678 342.68 191.969 342.617 192.249C342.553 192.529 342.365 192.777 342.092 192.936L329.345 200.391C329.141 200.51 328.901 200.574 328.655 200.574Z" fill="#3F3D56"/>
<path d="M280.758 247.25C280.08 247.248 279.427 247.026 278.927 246.627C278.428 246.228 278.118 245.681 278.06 245.094C276.977 234.412 271.547 180.577 270.951 169.705C270.288 157.625 281.862 138.514 281.98 138.323L282.06 138.191L287.78 138.812V139.39L293.225 139.947L303.763 140.832L306.78 172.862L308.114 194.584L320.646 238.95C320.788 239.442 320.702 239.962 320.406 240.398C320.11 240.835 319.629 241.153 319.065 241.284L308.158 243.867C307.591 244 306.987 243.933 306.475 243.683C305.964 243.432 305.586 243.017 305.423 242.527L295.154 211.192C295.104 211.041 294.992 210.91 294.839 210.825C294.686 210.74 294.503 210.706 294.324 210.731C294.144 210.755 293.981 210.835 293.865 210.956C293.749 211.078 293.689 211.232 293.694 211.389L294.78 241.944C294.786 242.257 294.717 242.569 294.579 242.859C294.441 243.148 294.237 243.411 293.978 243.63C291.478 245.669 284.872 246.758 281.156 247.226C281.025 247.242 280.891 247.25 280.758 247.25Z" fill="#2F2E41"/>
<path d="M313.532 112.654C311.802 111.087 300.398 113.241 297.866 115.549L280.532 140.161L309.199 144.794L315.533 113.523L313.532 112.654Z" fill="#20C57A"/>
<path d="M306.019 175.183C305.401 175.183 304.788 175.095 304.204 174.92C302.539 174.424 300.497 173.905 298.137 173.378C287.8 171.069 284.151 163.677 287.29 151.407L287.369 151.095C290.317 139.456 295.873 128.434 303.721 118.659L304.937 117.142C306.404 115.312 308.458 113.897 310.844 113.073C313.23 112.248 315.842 112.052 318.355 112.506C323.006 113.34 325.504 114.547 325.778 116.096C326.316 119.134 315.927 155.862 311.436 171.511C311.135 172.561 310.438 173.493 309.456 174.158C308.474 174.824 307.264 175.185 306.019 175.183Z" fill="#2F2E41"/>
<path d="M270.409 170.468C270.139 170.468 269.87 170.432 269.613 170.36L266.262 169.429C265.916 169.333 265.596 169.175 265.324 168.965C265.052 168.756 264.834 168.499 264.682 168.212C264.531 167.924 264.45 167.613 264.446 167.297C264.441 166.981 264.512 166.668 264.654 166.377L282.432 130.13C285.839 123.216 291.795 117.481 299.363 113.828C299.473 113.775 299.594 113.743 299.719 113.733C299.843 113.723 299.969 113.735 300.088 113.769C300.198 113.799 300.299 113.849 300.384 113.915C300.47 113.981 300.539 114.062 300.587 114.153C302.678 118.149 291.298 137.057 282.153 152.25C277.471 160.029 273.427 166.748 272.967 168.664C272.844 169.174 272.523 169.632 272.057 169.961C271.591 170.289 271.009 170.468 270.409 170.468Z" fill="#2F2E41"/>
<path d="M325.411 178.727C326.035 178.323 326.55 177.804 326.919 177.207C327.287 176.611 327.501 175.952 327.544 175.276C327.588 174.6 327.46 173.924 327.171 173.296C326.881 172.668 326.436 172.102 325.868 171.639L325.727 128.204L314.295 129.87L318.034 172.063C317.202 172.944 316.771 174.06 316.823 175.199C316.875 176.337 317.405 177.42 318.315 178.241C319.224 179.063 320.448 179.566 321.756 179.656C323.064 179.745 324.364 179.415 325.411 178.727Z" fill="#FFB8B8"/>
<path d="M316.103 138.98C315.536 138.98 314.991 138.792 314.578 138.456C314.164 138.12 313.913 137.659 313.876 137.168L312.546 119.642C312.42 117.956 313.07 116.295 314.352 115.024C315.634 113.753 317.444 112.976 319.385 112.863C320.382 112.806 321.381 112.926 322.323 113.216C323.264 113.507 324.127 113.961 324.859 114.551C325.591 115.141 326.177 115.855 326.58 116.648C326.984 117.442 327.196 118.299 327.205 119.166L327.386 136.931C327.39 137.444 327.16 137.938 326.747 138.304C326.334 138.671 325.77 138.881 325.18 138.888L316.13 138.98L316.103 138.98Z" fill="#2F2E41"/>
<path d="M307.924 108.424C314.654 108.424 320.11 103.684 320.11 97.8384C320.11 91.9924 314.654 87.2532 307.924 87.2532C301.194 87.2532 295.738 91.9924 295.738 97.8384C295.738 103.684 301.194 108.424 307.924 108.424Z" fill="#FFB8B8"/>
<path d="M318.056 105.245C318.965 102.733 319.799 99.7705 318.001 97.6504C316.705 96.1228 314.378 95.5315 312.195 95.4468C310.013 95.3622 307.824 95.6835 305.647 95.5331C303.469 95.3827 301.167 94.6361 300.061 92.9998C298.626 90.8781 299.841 87.9556 302.148 86.5267C304.454 85.0978 307.5 84.8983 310.307 85.2311C313.859 85.5974 317.198 86.8947 319.879 88.9504C322.488 91.0419 324.188 94.0567 324.113 97.1398C324.037 100.223 322.046 103.293 318.874 104.677" fill="#2F2E41"/>
<path d="M315.018 82.1157C312.1 81.3351 310.755 77.9849 312.059 75.5877C313.364 73.1906 316.699 71.9353 319.727 72.2692C322.755 72.6031 325.424 74.2907 327.264 76.406C329.105 78.5213 330.215 81.0429 331.14 83.5696C332.065 86.0964 332.835 88.6778 334.099 91.0914C336.104 94.7998 339.198 97.9844 343.07 100.325C346.941 102.666 351.453 104.081 356.153 104.427C358.202 104.556 360.328 104.463 362.195 103.72C364.062 102.976 365.628 101.476 365.837 99.7013C366.899 106.006 362.677 112.707 355.99 115.326C349.303 117.946 340.726 116.261 335.988 111.396C331.358 106.642 330.641 99.9297 330.753 93.7035C330.783 91.9961 330.856 90.2565 330.313 88.6154C329.77 86.9743 328.485 85.4139 326.613 84.8927C325.102 84.4721 323.466 84.7753 321.918 85.0734C320.369 85.3716 318.725 85.6585 317.226 85.2091C315.727 84.7596 314.519 83.2787 315.124 82.0048" fill="#2F2E41"/>
<path d="M363.23 256H232.244C232.112 256 231.986 255.955 231.893 255.874C231.8 255.793 231.748 255.683 231.748 255.569C231.748 255.455 231.8 255.345 231.893 255.264C231.986 255.183 232.112 255.138 232.244 255.138H363.23C363.362 255.138 363.488 255.183 363.581 255.264C363.674 255.345 363.726 255.455 363.726 255.569C363.726 255.683 363.674 255.793 363.581 255.874C363.488 255.955 363.362 256 363.23 256Z" fill="#CCCCCC"/>
</g>
<defs>
<clipPath id="clip0_11_70">
<rect width="366" height="256" fill="white"/>
</clipPath>
</defs>
</svg>
