<svg width="366" height="256" viewBox="0 0 366 256" fill="none" xmlns="http://www.w3.org/2000/svg">
<g clip-path="url(#clip0_12_214)">
<path d="M300.416 153.268C300.658 153.193 300.905 153.137 301.155 153.103L311.15 131.89L308.098 127.112L314.4 121.359L322.322 131.485L306.188 156.012C306.585 156.939 306.702 157.971 306.524 158.97C306.346 159.969 305.881 160.887 305.191 161.603C304.501 162.319 303.618 162.799 302.661 162.978C301.703 163.158 300.716 163.028 299.831 162.608C298.946 162.187 298.204 161.494 297.704 160.623C297.205 159.751 296.972 158.741 297.035 157.727C297.098 156.713 297.456 155.743 298.06 154.947C298.664 154.15 299.485 153.565 300.416 153.268Z" fill="#A0616A"/>
<path d="M317.477 124.29C317.34 124.44 317.184 124.569 317.013 124.672L306.787 130.864C306.542 131.013 306.269 131.107 305.987 131.14C305.704 131.173 305.418 131.145 305.147 131.057C304.876 130.968 304.625 130.822 304.411 130.628C304.196 130.433 304.023 130.194 303.901 129.926L298.928 118.951C298.716 118.489 298.671 117.963 298.799 117.469C298.928 116.975 299.223 116.545 299.629 116.259L305.968 111.755C306.364 111.474 306.841 111.346 307.318 111.394C307.794 111.441 308.24 111.661 308.578 112.014L317.438 121.302C317.815 121.697 318.029 122.23 318.037 122.788C318.044 123.345 317.843 123.884 317.477 124.29Z" fill="#CCCCCC"/>
<path d="M331.835 245.841L326.436 247.375L318.2 226.353L326.169 224.088L331.835 245.841Z" fill="#A0616A"/>
<path d="M322.159 246.86L332.572 243.901L334.355 250.749L317.387 255.571C317.153 254.672 317.091 253.733 317.204 252.809C317.317 251.884 317.603 250.992 318.046 250.183C318.489 249.374 319.081 248.664 319.786 248.094C320.492 247.524 321.298 247.105 322.159 246.86Z" fill="#2F2E41"/>
<path d="M285.68 250.144L280.085 250.143L277.423 227.6L285.681 227.601L285.68 250.144Z" fill="#A0616A"/>
<path d="M276.088 248.474H286.879V255.571H269.294C269.294 254.639 269.47 253.716 269.811 252.855C270.153 251.994 270.653 251.211 271.284 250.552C271.915 249.893 272.664 249.371 273.488 249.014C274.312 248.657 275.196 248.474 276.088 248.474Z" fill="#2F2E41"/>
<path d="M291.575 104.272C297.766 104.272 302.784 99.0296 302.784 92.563C302.784 86.0964 297.766 80.8542 291.575 80.8542C285.384 80.8542 280.366 86.0964 280.366 92.563C280.366 99.0296 285.384 104.272 291.575 104.272Z" fill="#A0616A"/>
<path d="M285.337 234.071H277.691C277.168 234.07 276.666 233.861 276.285 233.487C275.904 233.114 275.673 232.603 275.639 232.058C273.361 194.224 274.694 167.086 279.833 146.651C279.856 146.562 279.884 146.474 279.917 146.388L280.326 145.319C280.478 144.92 280.74 144.578 281.081 144.337C281.421 144.097 281.822 143.969 282.233 143.97H297.957C298.253 143.97 298.546 144.037 298.815 144.166C299.084 144.295 299.323 144.484 299.516 144.719L301.652 147.322C301.693 147.373 301.732 147.425 301.77 147.479C311.4 161.507 320.03 188.932 330.026 225.794C330.173 226.33 330.115 226.905 329.862 227.396C329.61 227.887 329.184 228.256 328.675 228.424L320.458 231.171C319.987 231.326 319.477 231.299 319.023 231.095C318.568 230.891 318.199 230.523 317.982 230.059L296.659 183.861C296.51 183.538 296.265 183.274 295.961 183.108C295.657 182.942 295.31 182.882 294.971 182.938C294.632 182.994 294.319 183.163 294.079 183.419C293.839 183.675 293.684 184.005 293.637 184.36L287.372 232.216C287.303 232.729 287.06 233.199 286.686 233.54C286.312 233.881 285.833 234.069 285.337 234.071Z" fill="#2F2E41"/>
<path d="M300.79 147.513C300.768 147.513 300.747 147.512 300.725 147.512L281.626 146.882C281.135 146.867 280.665 146.669 280.303 146.323C279.94 145.977 279.709 145.506 279.651 144.997C277.229 124.526 283.869 119.041 286.837 117.634C287.085 117.517 287.299 117.335 287.46 117.106C287.621 116.877 287.723 116.608 287.755 116.326L288.012 114.181C288.055 113.802 288.196 113.442 288.417 113.139C293.07 106.844 299.422 104.828 302.795 104.187C303.068 104.135 303.349 104.143 303.62 104.208C303.891 104.273 304.146 104.396 304.37 104.567C304.594 104.739 304.783 104.956 304.924 105.206C305.065 105.457 305.156 105.734 305.191 106.022L305.576 109.103C305.615 109.397 305.728 109.675 305.902 109.909C315.604 123.158 304.795 142.721 302.53 146.507C302.345 146.815 302.088 147.068 301.784 147.244C301.479 147.42 301.137 147.512 300.79 147.513Z" fill="#CCCCCC"/>
<path d="M314.19 93.8811C311.69 90.2032 308.691 86.9241 305.288 84.1463C302.46 81.8382 299.311 79.8664 295.837 78.9232C292.363 77.9799 288.526 78.1405 285.357 79.9C282.187 81.6596 278.91 85.1557 278.89 88.9051C278.884 90.1095 279.177 91.7391 280.313 91.5308L280.641 91.5763C283.381 90.9983 286.12 90.4204 288.859 89.8424C290.026 94.0718 291.193 98.3013 292.359 102.531C292.605 103.422 292.935 104.419 293.745 104.799C294.508 105.157 295.39 104.82 296.162 104.483C296.289 104.428 297.38 101.87 297.38 101.87C297.407 101.79 297.455 101.719 297.517 101.665C297.579 101.61 297.654 101.574 297.735 101.56C297.815 101.546 297.897 101.555 297.973 101.585C298.049 101.615 298.116 101.666 298.166 101.732L298.814 102.578C298.938 102.74 299.109 102.855 299.301 102.907C299.493 102.958 299.696 102.942 299.879 102.863C304.346 100.915 308.813 98.9667 313.281 97.0187C313.898 96.7495 314.588 96.3979 314.767 95.7245C314.939 95.0794 314.561 94.4271 314.19 93.8811Z" fill="#2F2E41"/>
<path d="M365.544 256H228.171C228.05 256 227.934 255.95 227.849 255.86C227.763 255.771 227.715 255.65 227.715 255.523C227.715 255.397 227.763 255.276 227.849 255.186C227.934 255.097 228.05 255.047 228.171 255.047H365.544C365.665 255.047 365.781 255.097 365.866 255.186C365.952 255.276 366 255.397 366 255.523C366 255.65 365.952 255.771 365.866 255.86C365.781 255.95 365.665 256 365.544 256Z" fill="#3F3D56"/>
<path d="M291.069 181.709C290.759 181.708 290.457 181.604 290.207 181.411L288.13 179.835C287.957 179.703 287.749 179.632 287.536 179.632C287.322 179.632 287.114 179.703 286.942 179.835L284.865 181.411C284.614 181.601 284.312 181.704 284.003 181.704C283.693 181.704 283.391 181.601 283.141 181.411C282.89 181.221 282.704 180.953 282.608 180.646C282.512 180.338 282.512 180.006 282.608 179.699L283.401 177.148C283.468 176.936 283.468 176.707 283.402 176.495C283.336 176.283 283.207 176.099 283.034 175.968L280.957 174.391C280.706 174.201 280.52 173.933 280.424 173.625C280.328 173.318 280.328 172.986 280.424 172.679C280.52 172.371 280.706 172.103 280.957 171.913C281.207 171.723 281.509 171.62 281.819 171.62H284.387C284.6 171.621 284.808 171.55 284.981 171.419C285.154 171.288 285.282 171.103 285.348 170.891L286.141 168.34C286.237 168.032 286.423 167.764 286.674 167.574C286.924 167.384 287.226 167.281 287.536 167.281C287.845 167.281 288.147 167.384 288.398 167.574C288.648 167.764 288.835 168.032 288.931 168.34L289.724 170.891C289.79 171.103 289.918 171.288 290.091 171.419C290.263 171.55 290.471 171.621 290.685 171.62H293.253C293.562 171.62 293.864 171.723 294.115 171.913C294.365 172.103 294.552 172.371 294.647 172.679C294.743 172.986 294.743 173.318 294.647 173.625C294.552 173.933 294.365 174.201 294.115 174.391L292.037 175.968C291.864 176.099 291.736 176.283 291.67 176.495C291.604 176.707 291.604 176.936 291.67 177.148L292.464 179.699C292.563 180.006 292.565 180.339 292.469 180.647C292.373 180.956 292.184 181.224 291.931 181.411C291.681 181.604 291.379 181.708 291.069 181.709Z" fill="#20C57A"/>
<path d="M299.008 176.61C299.595 176.18 300.084 175.621 300.442 174.972C300.8 174.323 301.017 173.6 301.078 172.854C301.139 172.108 301.043 171.357 300.796 170.654C300.55 169.951 300.158 169.313 299.65 168.785L303.198 124.035L292.635 125.553L292.434 169.032C291.642 169.982 291.211 171.204 291.223 172.464C291.234 173.725 291.689 174.937 292.499 175.871C293.309 176.805 294.42 177.396 295.619 177.532C296.819 177.668 298.025 177.34 299.008 176.61Z" fill="#A0616A"/>
<path d="M303.888 130.479C303.69 130.479 303.493 130.449 303.304 130.39L291.964 126.906C291.692 126.823 291.439 126.681 291.221 126.49C291.004 126.299 290.827 126.063 290.701 125.796C290.576 125.53 290.504 125.24 290.492 124.943C290.479 124.647 290.526 124.351 290.628 124.074L294.825 112.75C295 112.272 295.334 111.875 295.765 111.633C296.197 111.39 296.698 111.318 297.176 111.429L304.668 113.13C305.135 113.236 305.553 113.51 305.848 113.903C306.143 114.297 306.298 114.786 306.284 115.285L305.936 128.392C305.921 128.949 305.699 129.479 305.317 129.868C304.934 130.258 304.422 130.477 303.888 130.479Z" fill="#CCCCCC"/>
<path d="M197.159 186.399H3.1947C2.34771 186.398 1.53567 186.046 0.936756 185.42C0.337839 184.794 0.000950663 183.946 0 183.061V122.518C0.000950663 121.633 0.337839 120.785 0.936756 120.159C1.53567 119.534 2.34771 119.182 3.1947 119.181H197.159C198.006 119.182 198.818 119.534 199.417 120.159C200.016 120.785 200.353 121.633 200.354 122.518V183.061C200.353 183.946 200.016 184.794 199.417 185.42C198.818 186.046 198.006 186.398 197.159 186.399ZM3.1947 120.134C2.58971 120.135 2.00971 120.386 1.58191 120.833C1.15412 121.28 0.913473 121.886 0.912772 122.518V183.061C0.913473 183.693 1.15412 184.299 1.58191 184.746C2.00971 185.193 2.58971 185.444 3.1947 185.445H197.159C197.764 185.444 198.344 185.193 198.772 184.746C199.199 184.299 199.44 183.693 199.441 183.061V122.518C199.44 121.886 199.199 121.28 198.772 120.833C198.344 120.386 197.764 120.135 197.159 120.134H3.1947Z" fill="#3F3D56"/>
<path d="M88.0711 211.891C87.6909 211.89 87.321 211.762 87.015 211.526L84.47 209.595C84.2589 209.434 84.0042 209.347 83.7427 209.347C83.4812 209.347 83.2265 209.434 83.0154 209.595L80.4704 211.526C80.1634 211.759 79.7938 211.884 79.4144 211.884C79.035 211.885 78.6654 211.759 78.3584 211.526C78.0515 211.293 77.823 210.965 77.7057 210.588C77.5884 210.211 77.5884 209.805 77.7056 209.428L78.6777 206.303C78.759 206.043 78.7593 205.764 78.6785 205.504C78.5977 205.244 78.44 205.018 78.2282 204.858L75.6832 202.926C75.3763 202.693 75.1478 202.365 75.0306 201.988C74.9133 201.611 74.9133 201.205 75.0306 200.828C75.1478 200.451 75.3763 200.123 75.6832 199.89C75.9901 199.657 76.3598 199.531 76.7392 199.531H79.8851C80.1465 199.532 80.4013 199.446 80.6128 199.285C80.8243 199.125 80.9816 198.898 81.0619 198.638L82.0339 195.513C82.1512 195.136 82.3796 194.808 82.6866 194.575C82.9936 194.342 83.3633 194.216 83.7427 194.216C84.1221 194.216 84.4918 194.342 84.7988 194.575C85.1057 194.808 85.3342 195.136 85.4514 195.513L86.4234 198.638C86.5038 198.898 86.661 199.125 86.8725 199.285C87.0841 199.446 87.3389 199.532 87.6003 199.531H90.7462C91.1256 199.531 91.4952 199.657 91.8022 199.89C92.1091 200.123 92.3375 200.451 92.4548 200.828C92.572 201.205 92.572 201.611 92.4548 201.988C92.3375 202.365 92.1091 202.693 91.8021 202.926L89.2571 204.858C89.0453 205.018 88.8877 205.244 88.8069 205.504C88.7261 205.764 88.7264 206.043 88.8076 206.303L89.7798 209.428C89.9013 209.805 89.9034 210.212 89.7859 210.59C89.6683 210.968 89.4373 211.296 89.1271 211.526C88.8211 211.762 88.4513 211.89 88.0711 211.891Z" fill="#20C57A"/>
<path d="M113.861 211.891C113.481 211.89 113.111 211.762 112.805 211.526L110.26 209.595C110.049 209.434 109.794 209.347 109.532 209.347C109.271 209.347 109.016 209.434 108.805 209.595L106.26 211.526C105.953 211.759 105.583 211.884 105.204 211.884C104.825 211.885 104.455 211.759 104.148 211.526C103.841 211.293 103.613 210.965 103.495 210.588C103.378 210.211 103.378 209.805 103.495 209.428L104.467 206.303C104.549 206.043 104.549 205.764 104.468 205.504C104.387 205.244 104.23 205.018 104.018 204.858L101.473 202.926C101.166 202.693 100.938 202.365 100.82 201.988C100.703 201.611 100.703 201.205 100.82 200.828C100.938 200.451 101.166 200.123 101.473 199.89C101.78 199.657 102.15 199.531 102.529 199.531H105.675C105.936 199.532 106.191 199.446 106.402 199.285C106.614 199.125 106.771 198.898 106.852 198.638L107.824 195.513C107.941 195.136 108.169 194.808 108.476 194.575C108.783 194.342 109.153 194.216 109.532 194.216C109.912 194.216 110.282 194.342 110.588 194.575C110.895 194.808 111.124 195.136 111.241 195.513L112.213 198.638C112.293 198.898 112.451 199.125 112.662 199.285C112.874 199.446 113.129 199.532 113.39 199.531H116.536C116.915 199.531 117.285 199.657 117.592 199.89C117.899 200.123 118.127 200.451 118.244 200.828C118.362 201.205 118.362 201.611 118.244 201.988C118.127 202.365 117.899 202.693 117.592 202.926L115.047 204.858C114.835 205.018 114.677 205.244 114.597 205.504C114.516 205.764 114.516 206.043 114.597 206.303L115.569 209.428C115.691 209.805 115.693 210.212 115.576 210.59C115.458 210.968 115.227 211.296 114.917 211.526C114.611 211.762 114.241 211.89 113.861 211.891Z" fill="#20C57A"/>
<path d="M139.65 211.891C139.27 211.89 138.9 211.762 138.594 211.526L136.049 209.595C135.838 209.434 135.583 209.347 135.322 209.347C135.061 209.347 134.806 209.434 134.595 209.595L132.05 211.526C131.743 211.759 131.373 211.884 130.994 211.884C130.614 211.885 130.245 211.759 129.938 211.526C129.631 211.293 129.402 210.965 129.285 210.588C129.168 210.211 129.168 209.805 129.285 209.428L130.257 206.303C130.338 206.043 130.339 205.764 130.258 205.504C130.177 205.244 130.019 205.018 129.808 204.858L127.263 202.926C126.956 202.693 126.727 202.365 126.61 201.988C126.493 201.611 126.493 201.205 126.61 200.828C126.727 200.451 126.956 200.123 127.263 199.89C127.57 199.657 127.939 199.531 128.319 199.531H131.464C131.726 199.532 131.981 199.446 132.192 199.285C132.404 199.125 132.561 198.898 132.641 198.638L133.613 195.513C133.731 195.136 133.959 194.808 134.266 194.575C134.573 194.342 134.943 194.216 135.322 194.216C135.702 194.216 136.071 194.342 136.378 194.575C136.685 194.808 136.914 195.136 137.031 195.513L138.003 198.638C138.083 198.898 138.241 199.125 138.452 199.285C138.664 199.446 138.918 199.532 139.18 199.531H142.326C142.705 199.531 143.075 199.657 143.382 199.89C143.688 200.123 143.917 200.451 144.034 200.828C144.151 201.205 144.151 201.611 144.034 201.988C143.917 202.365 143.689 202.693 143.382 202.926L140.837 204.858C140.625 205.018 140.467 205.244 140.386 205.504C140.306 205.764 140.306 206.043 140.387 206.303L141.359 209.428C141.481 209.805 141.483 210.212 141.365 210.59C141.248 210.968 141.017 211.296 140.707 211.526C140.401 211.762 140.031 211.89 139.65 211.891Z" fill="#20C57A"/>
<path d="M165.44 211.891C165.06 211.89 164.69 211.762 164.384 211.526L161.839 209.595C161.628 209.434 161.373 209.347 161.112 209.347C160.85 209.347 160.596 209.434 160.384 209.595L157.839 211.526C157.533 211.759 157.163 211.884 156.784 211.885C156.404 211.885 156.034 211.759 155.728 211.526C155.421 211.293 155.192 210.965 155.075 210.588C154.958 210.211 154.957 209.805 155.075 209.428L156.047 206.303C156.128 206.043 156.128 205.764 156.048 205.504C155.967 205.244 155.809 205.018 155.597 204.858L153.052 202.926C152.745 202.693 152.517 202.365 152.4 201.988C152.282 201.611 152.282 201.205 152.4 200.828C152.517 200.451 152.745 200.123 153.052 199.89C153.359 199.657 153.729 199.531 154.108 199.531H157.254C157.515 199.532 157.77 199.446 157.982 199.285C158.193 199.125 158.351 198.898 158.431 198.638L159.403 195.513C159.52 195.136 159.749 194.808 160.056 194.575C160.363 194.342 160.732 194.216 161.112 194.216C161.491 194.216 161.861 194.342 162.168 194.575C162.475 194.808 162.703 195.136 162.82 195.513L163.793 198.638C163.873 198.898 164.03 199.125 164.242 199.285C164.453 199.446 164.708 199.532 164.969 199.531H168.115C168.495 199.531 168.864 199.657 169.171 199.89C169.478 200.123 169.707 200.451 169.824 200.828C169.941 201.205 169.941 201.611 169.824 201.988C169.707 202.365 169.478 202.693 169.171 202.926L166.626 204.858C166.414 205.018 166.257 205.244 166.176 205.504C166.095 205.764 166.095 206.043 166.177 206.303L167.149 209.428C167.27 209.805 167.273 210.212 167.155 210.59C167.037 210.968 166.806 211.296 166.496 211.526C166.19 211.762 165.82 211.89 165.44 211.891Z" fill="#20C57A"/>
<path d="M182.573 212.077C182.156 212.075 181.749 211.934 181.413 211.676C181.072 211.423 180.819 211.062 180.69 210.647C180.56 210.232 180.563 209.784 180.696 209.371L181.668 206.246C181.738 206.023 181.738 205.784 181.669 205.561C181.6 205.338 181.465 205.144 181.283 205.007L178.738 203.076C178.401 202.82 178.15 202.459 178.021 202.045C177.892 201.631 177.892 201.185 178.021 200.771C178.15 200.357 178.401 199.996 178.738 199.74C179.075 199.484 179.481 199.347 179.898 199.347H183.044C183.268 199.347 183.486 199.273 183.668 199.136C183.849 198.998 183.984 198.804 184.052 198.581L185.025 195.456C185.153 195.042 185.404 194.681 185.742 194.425C186.079 194.169 186.485 194.032 186.902 194.032C187.318 194.032 187.724 194.169 188.062 194.425C188.399 194.681 188.65 195.042 188.778 195.456L189.75 198.581C189.819 198.804 189.954 198.998 190.135 199.136C190.317 199.273 190.535 199.347 190.759 199.347H193.905C194.322 199.347 194.728 199.484 195.065 199.74C195.402 199.996 195.653 200.357 195.782 200.771C195.911 201.185 195.911 201.631 195.782 202.045C195.653 202.459 195.402 202.82 195.065 203.076L192.52 205.007C192.338 205.144 192.203 205.338 192.134 205.561C192.065 205.783 192.065 206.023 192.135 206.246L193.107 209.371C193.235 209.785 193.235 210.231 193.107 210.645C192.978 211.059 192.727 211.42 192.39 211.675C192.053 211.931 191.647 212.069 191.23 212.069C190.813 212.069 190.407 211.931 190.07 211.675L187.525 209.744C187.344 209.606 187.126 209.532 186.901 209.532C186.677 209.532 186.459 209.606 186.278 209.744L183.733 211.675C183.397 211.934 182.991 212.075 182.573 212.077ZM186.901 208.578C187.318 208.578 187.724 208.716 188.061 208.973L190.606 210.904C190.787 211.042 191.006 211.116 191.23 211.116C191.454 211.116 191.672 211.042 191.853 210.904C192.034 210.767 192.169 210.573 192.239 210.35C192.308 210.128 192.308 209.888 192.239 209.666L191.266 206.541C191.137 206.127 191.136 205.68 191.265 205.266C191.394 204.852 191.646 204.491 191.983 204.236L194.528 202.304C194.71 202.167 194.844 201.973 194.914 201.75C194.983 201.528 194.983 201.288 194.914 201.066C194.844 200.843 194.71 200.649 194.528 200.512C194.347 200.374 194.129 200.3 193.905 200.3H190.759C190.342 200.301 189.936 200.163 189.599 199.907C189.261 199.651 189.01 199.29 188.882 198.876L187.91 195.751C187.841 195.528 187.706 195.334 187.525 195.197C187.344 195.059 187.125 194.985 186.901 194.985C186.677 194.985 186.459 195.059 186.278 195.197C186.097 195.334 185.962 195.528 185.893 195.751L184.92 198.876C184.792 199.29 184.542 199.651 184.204 199.907C183.867 200.163 183.461 200.301 183.044 200.3H179.898C179.674 200.3 179.456 200.374 179.275 200.512C179.093 200.649 178.958 200.843 178.889 201.066C178.82 201.288 178.82 201.528 178.889 201.75C178.958 201.973 179.093 202.167 179.274 202.304L181.82 204.236C182.157 204.491 182.409 204.852 182.538 205.266C182.666 205.68 182.666 206.127 182.536 206.541L181.564 209.666C181.495 209.888 181.495 210.128 181.564 210.35C181.633 210.573 181.768 210.767 181.95 210.904C182.131 211.042 182.349 211.116 182.573 211.116C182.797 211.116 183.015 211.042 183.196 210.904L185.742 208.973C186.078 208.716 186.485 208.578 186.901 208.578Z" fill="#3F3D56"/>
<path d="M25.1012 133.482C24.3145 133.482 23.5599 133.809 23.0036 134.39C22.4473 134.971 22.1347 135.759 22.1347 136.581C22.1347 137.403 22.4473 138.191 23.0036 138.772C23.5599 139.353 24.3145 139.68 25.1012 139.68H175.252C176.039 139.68 176.794 139.353 177.35 138.772C177.906 138.191 178.219 137.403 178.219 136.581C178.219 135.759 177.906 134.971 177.35 134.39C176.794 133.809 176.039 133.482 175.252 133.482H25.1012Z" fill="#CCCCCC"/>
<path d="M25.1012 149.691C24.3145 149.691 23.5599 150.017 23.0036 150.598C22.4473 151.18 22.1347 151.968 22.1347 152.79C22.1347 153.611 22.4473 154.4 23.0036 154.981C23.5599 155.562 24.3145 155.888 25.1012 155.888H175.252C176.039 155.888 176.794 155.562 177.35 154.981C177.906 154.4 178.219 153.611 178.219 152.79C178.219 151.968 177.906 151.18 177.35 150.598C176.794 150.017 176.039 149.691 175.252 149.691H25.1012Z" fill="#CCCCCC"/>
<path d="M25.1012 165.899C24.3145 165.899 23.5599 166.226 23.0036 166.807C22.4473 167.388 22.1347 168.176 22.1347 168.998C22.1347 169.82 22.4473 170.608 23.0036 171.189C23.5599 171.77 24.3145 172.097 25.1012 172.097H175.252C176.039 172.097 176.794 171.77 177.35 171.189C177.906 170.608 178.219 169.82 178.219 168.998C178.219 168.176 177.906 167.388 177.35 166.807C176.794 166.226 176.039 165.899 175.252 165.899H25.1012Z" fill="#CCCCCC"/>
<path d="M25.1012 133.482C24.3145 133.482 23.5599 133.809 23.0036 134.39C22.4473 134.971 22.1347 135.759 22.1347 136.581C22.1347 137.403 22.4473 138.191 23.0036 138.772C23.5599 139.353 24.3145 139.68 25.1012 139.68H175.252C176.039 139.68 176.794 139.353 177.35 138.772C177.906 138.191 178.219 137.403 178.219 136.581C178.219 135.759 177.906 134.971 177.35 134.39C176.794 133.809 176.039 133.482 175.252 133.482H25.1012Z" fill="#CCCCCC"/>
<path d="M25.1012 149.691C24.3145 149.691 23.5599 150.017 23.0036 150.598C22.4473 151.18 22.1347 151.968 22.1347 152.79C22.1347 153.611 22.4473 154.4 23.0036 154.981C23.5599 155.562 24.3145 155.888 25.1012 155.888H175.252C176.039 155.888 176.794 155.562 177.35 154.981C177.906 154.4 178.219 153.611 178.219 152.79C178.219 151.968 177.906 151.18 177.35 150.598C176.794 150.017 176.039 149.691 175.252 149.691H25.1012Z" fill="#CCCCCC"/>
<path d="M25.1012 165.899C24.3145 165.899 23.5599 166.226 23.0036 166.807C22.4473 167.388 22.1347 168.176 22.1347 168.998C22.1347 169.82 22.4473 170.608 23.0036 171.189C23.5599 171.77 24.3145 172.097 25.1012 172.097H175.252C176.039 172.097 176.794 171.77 177.35 171.189C177.906 170.608 178.219 169.82 178.219 168.998C178.219 168.176 177.906 167.388 177.35 166.807C176.794 166.226 176.039 165.899 175.252 165.899H25.1012Z" fill="#CCCCCC"/>
<path d="M197.159 67.2179H3.1947C2.34771 67.2169 1.53567 66.865 0.936756 66.2394C0.337839 65.6138 0.000950663 64.7656 0 63.8808V3.33706C0.000950663 2.45232 0.337839 1.6041 0.936756 0.978498C1.53567 0.352893 2.34771 0.000993025 3.1947 0H197.159C198.006 0.000991765 198.818 0.352893 199.417 0.978498C200.016 1.6041 200.353 2.45232 200.354 3.33706V63.8808C200.353 64.7656 200.016 65.6138 199.417 66.2394C198.818 66.865 198.006 67.2169 197.159 67.2179ZM3.1947 0.953445C2.58971 0.954177 2.00971 1.20554 1.58191 1.65239C1.15412 2.09925 0.913473 2.70511 0.912772 3.33706V63.8808C0.913473 64.5128 1.15412 65.1186 1.58191 65.5655C2.00971 66.0123 2.58971 66.2637 3.1947 66.2644H197.159C197.764 66.2637 198.344 66.0124 198.772 65.5655C199.199 65.1186 199.44 64.5128 199.441 63.8808V3.33706C199.44 2.70511 199.199 2.09925 198.772 1.65239C198.344 1.20553 197.764 0.954167 197.159 0.953445H3.1947Z" fill="#3F3D56"/>
<path d="M88.0711 92.7107C87.6909 92.7091 87.321 92.5812 87.015 92.3454L84.47 90.414C84.2589 90.253 84.0042 90.1662 83.7427 90.1662C83.4812 90.1662 83.2265 90.253 83.0154 90.414L80.4704 92.3454C80.1634 92.5784 79.7938 92.7038 79.4144 92.7039C79.035 92.7039 78.6654 92.5784 78.3584 92.3455C78.0515 92.1126 77.823 91.7842 77.7057 91.4073C77.5884 91.0304 77.5884 90.6244 77.7056 90.2475L78.6777 87.1224C78.759 86.8628 78.7593 86.583 78.6785 86.3232C78.5977 86.0634 78.44 85.8371 78.2282 85.677L75.6832 83.7456C75.3763 83.5126 75.1478 83.1842 75.0306 82.8073C74.9133 82.4304 74.9133 82.0244 75.0306 81.6474C75.1478 81.2705 75.3763 80.9421 75.6832 80.7091C75.9901 80.4762 76.3598 80.3507 76.7392 80.3507H79.8851C80.1465 80.3512 80.4013 80.265 80.6128 80.1045C80.8243 79.944 80.9816 79.7175 81.0619 79.4576L82.0339 76.3325C82.1512 75.9556 82.3796 75.6271 82.6866 75.3941C82.9936 75.1611 83.3633 75.0356 83.7427 75.0356C84.1221 75.0356 84.4918 75.1611 84.7988 75.3941C85.1057 75.6271 85.3342 75.9556 85.4514 76.3325L86.4234 79.4576C86.5038 79.7175 86.661 79.944 86.8725 80.1045C87.0841 80.265 87.3389 80.3512 87.6003 80.3507H90.7462C91.1256 80.3507 91.4952 80.4762 91.8022 80.7091C92.1091 80.9421 92.3375 81.2706 92.4548 81.6475C92.572 82.0244 92.572 82.4304 92.4548 82.8073C92.3375 83.1842 92.1091 83.5126 91.8021 83.7456L89.2571 85.677C89.0453 85.8371 88.8877 86.0634 88.8069 86.3232C88.7261 86.583 88.7264 86.8628 88.8076 87.1224L89.7798 90.2475C89.9013 90.624 89.9034 91.0314 89.7859 91.4093C89.6683 91.7872 89.4373 92.1155 89.1271 92.3454C88.8211 92.5812 88.4513 92.7091 88.0711 92.7107Z" fill="#20C57A"/>
<path d="M113.861 92.7107C113.481 92.7091 113.111 92.5812 112.805 92.3454L110.26 90.414C110.049 90.253 109.794 90.1662 109.532 90.1662C109.271 90.1662 109.016 90.253 108.805 90.414L106.26 92.3454C105.953 92.5784 105.583 92.7038 105.204 92.7039C104.825 92.7039 104.455 92.5784 104.148 92.3455C103.841 92.1126 103.613 91.7842 103.495 91.4073C103.378 91.0304 103.378 90.6244 103.495 90.2475L104.467 87.1224C104.549 86.8628 104.549 86.583 104.468 86.3232C104.387 86.0634 104.23 85.8371 104.018 85.677L101.473 83.7456C101.166 83.5126 100.938 83.1841 100.82 82.8072C100.703 82.4303 100.703 82.0243 100.82 81.6474C100.938 81.2705 101.166 80.9421 101.473 80.7091C101.78 80.4762 102.15 80.3507 102.529 80.3507H105.675C105.936 80.3512 106.191 80.265 106.402 80.1045C106.614 79.944 106.771 79.7175 106.852 79.4576L107.824 76.3325C107.941 75.9556 108.169 75.6271 108.476 75.3941C108.783 75.1611 109.153 75.0356 109.532 75.0356C109.912 75.0356 110.282 75.1611 110.588 75.3941C110.895 75.6271 111.124 75.9556 111.241 76.3325L112.213 79.4576C112.293 79.7175 112.451 79.944 112.662 80.1045C112.874 80.265 113.129 80.3512 113.39 80.3507H116.536C116.915 80.3507 117.285 80.4762 117.592 80.7091C117.899 80.9421 118.127 81.2705 118.244 81.6474C118.362 82.0243 118.362 82.4303 118.244 82.8072C118.127 83.1841 117.899 83.5126 117.592 83.7456L115.047 85.677C114.835 85.8371 114.677 86.0634 114.597 86.3231C114.516 86.5829 114.516 86.8628 114.597 87.1224L115.569 90.2475C115.691 90.624 115.693 91.0314 115.576 91.4093C115.458 91.7872 115.227 92.1155 114.917 92.3454C114.611 92.5812 114.241 92.7091 113.861 92.7107Z" fill="#20C57A"/>
<path d="M139.65 92.7107C139.27 92.7091 138.9 92.5812 138.594 92.3454L136.049 90.414C135.838 90.2534 135.583 90.1668 135.322 90.1668C135.061 90.1668 134.806 90.2534 134.595 90.414L132.05 92.3454C131.743 92.5784 131.373 92.7038 130.994 92.7039C130.614 92.7039 130.245 92.5784 129.938 92.3455C129.631 92.1126 129.402 91.7842 129.285 91.4073C129.168 91.0304 129.168 90.6244 129.285 90.2475L130.257 87.1224C130.338 86.8628 130.339 86.583 130.258 86.3232C130.177 86.0634 130.019 85.8371 129.808 85.677L127.263 83.7456C126.956 83.5126 126.727 83.1841 126.61 82.8072C126.493 82.4303 126.493 82.0243 126.61 81.6474C126.727 81.2705 126.956 80.9421 127.263 80.7091C127.57 80.4762 127.939 80.3507 128.319 80.3507H131.464C131.726 80.3512 131.981 80.265 132.192 80.1045C132.404 79.944 132.561 79.7175 132.641 79.4576L133.613 76.3325C133.731 75.9556 133.959 75.6271 134.266 75.3941C134.573 75.1611 134.943 75.0356 135.322 75.0356C135.702 75.0356 136.071 75.1611 136.378 75.3941C136.685 75.6271 136.914 75.9556 137.031 76.3325L138.003 79.4576C138.083 79.7175 138.241 79.944 138.452 80.1045C138.664 80.265 138.918 80.3512 139.18 80.3507H142.326C142.705 80.3507 143.075 80.4762 143.382 80.7091C143.688 80.9421 143.917 81.2705 144.034 81.6474C144.151 82.0243 144.151 82.4303 144.034 82.8072C143.917 83.1841 143.689 83.5126 143.382 83.7456L140.837 85.677C140.625 85.8371 140.467 86.0634 140.386 86.3232C140.306 86.583 140.306 86.8628 140.387 87.1224L141.359 90.2475C141.481 90.624 141.483 91.0314 141.365 91.4093C141.248 91.7872 141.017 92.1154 140.707 92.3454C140.401 92.5812 140.031 92.7091 139.65 92.7107Z" fill="#20C57A"/>
<path d="M182.573 92.896C182.156 92.8942 181.749 92.7538 181.413 92.4951C181.072 92.2424 180.819 91.8818 180.69 91.4666C180.56 91.0514 180.563 90.6038 180.696 90.1902L181.668 87.0652C181.738 86.8427 181.738 86.6029 181.669 86.3803C181.6 86.1577 181.465 85.9638 181.283 85.8266L178.738 83.895C178.401 83.6391 178.15 83.2783 178.021 82.8643C177.892 82.4503 177.892 82.0043 178.021 81.5903C178.15 81.1763 178.401 80.8154 178.738 80.5596C179.075 80.3037 179.481 80.1659 179.898 80.166H183.044C183.268 80.1664 183.486 80.0925 183.668 79.9549C183.849 79.8173 183.984 79.6231 184.052 79.4003L185.025 76.2753C185.153 75.8613 185.404 75.5005 185.742 75.2447C186.079 74.9888 186.485 74.851 186.902 74.851C187.318 74.851 187.724 74.9888 188.062 75.2447C188.399 75.5005 188.65 75.8613 188.778 76.2753L189.75 79.4003C189.819 79.6231 189.954 79.8173 190.135 79.9549C190.317 80.0925 190.535 80.1664 190.759 80.166H193.905C194.322 80.166 194.728 80.3038 195.065 80.5597C195.402 80.8155 195.653 81.1763 195.782 81.5903C195.911 82.0043 195.911 82.4503 195.782 82.8643C195.653 83.2783 195.402 83.6391 195.065 83.895L192.52 85.8266C192.338 85.9638 192.203 86.1576 192.134 86.3802C192.065 86.6028 192.065 86.8427 192.135 87.0652L193.107 90.1902C193.235 90.6042 193.235 91.0502 193.107 91.4642C192.978 91.8782 192.727 92.239 192.39 92.4949C192.053 92.7507 191.647 92.8885 191.23 92.8885C190.813 92.8885 190.407 92.7507 190.07 92.4949L187.525 90.5635C187.344 90.4256 187.126 90.3512 186.901 90.3512C186.677 90.3512 186.459 90.4256 186.278 90.5635L183.733 92.4949C183.397 92.7538 182.991 92.8943 182.573 92.896ZM186.901 89.3973C187.318 89.3974 187.724 89.5356 188.061 89.7921L190.606 91.7235C190.787 91.8611 191.006 91.9352 191.23 91.9352C191.454 91.9353 191.672 91.8612 191.853 91.7237C192.034 91.5861 192.169 91.3922 192.239 91.1697C192.308 90.9471 192.308 90.7074 192.239 90.4849L191.266 87.3599C191.137 86.9459 191.136 86.4997 191.265 86.0855C191.394 85.6713 191.646 85.3105 191.983 85.0552L194.528 83.1236C194.71 82.9861 194.844 82.7922 194.914 82.5697C194.983 82.3471 194.983 82.1075 194.914 81.885C194.844 81.6624 194.71 81.4685 194.528 81.331C194.347 81.1935 194.129 81.1194 193.905 81.1194H190.759C190.342 81.1202 189.936 80.9827 189.599 80.7267C189.261 80.4708 189.01 80.1095 188.882 79.6951L187.91 76.5701C187.841 76.3475 187.706 76.1536 187.525 76.016C187.344 75.8785 187.125 75.8044 186.901 75.8044C186.677 75.8044 186.459 75.8785 186.278 76.016C186.097 76.1536 185.962 76.3475 185.893 76.5701L184.92 79.6951C184.792 80.1095 184.542 80.4708 184.204 80.7268C183.867 80.9827 183.461 81.1202 183.044 81.1194H179.898C179.674 81.1194 179.456 81.1935 179.275 81.331C179.093 81.4685 178.958 81.6624 178.889 81.8849C178.82 82.1074 178.82 82.3471 178.889 82.5696C178.958 82.7922 179.093 82.9861 179.274 83.1236L181.82 85.0552C182.157 85.3105 182.409 85.6713 182.538 86.0855C182.666 86.4997 182.666 86.9459 182.536 87.3599L181.564 90.4849C181.495 90.7074 181.495 90.9471 181.564 91.1696C181.633 91.3921 181.768 91.586 181.95 91.7235C182.131 91.8611 182.349 91.9351 182.573 91.9351C182.797 91.9351 183.015 91.861 183.196 91.7235L185.742 89.7921C186.078 89.5357 186.485 89.3974 186.901 89.3973Z" fill="#3F3D56"/>
<path d="M156.559 92.8194C156.142 92.8176 155.735 92.6772 155.399 92.4185C155.058 92.1658 154.805 91.8052 154.676 91.39C154.546 90.9748 154.549 90.5273 154.682 90.1136L155.654 86.9886C155.724 86.7661 155.724 86.5263 155.655 86.3037C155.586 86.0811 155.451 85.8872 155.269 85.75L152.724 83.8184C152.387 83.5626 152.136 83.2017 152.007 82.7877C151.878 82.3737 151.878 81.9277 152.007 81.5137C152.136 81.0997 152.387 80.7389 152.724 80.483C153.061 80.2272 153.467 80.0894 153.884 80.0894H157.03C157.254 80.0898 157.472 80.0159 157.654 79.8783C157.835 79.7407 157.97 79.5465 158.038 79.3238L159.011 76.1988C159.139 75.7848 159.39 75.424 159.728 75.1681C160.065 74.9122 160.471 74.7744 160.888 74.7744C161.304 74.7744 161.71 74.9122 162.048 75.1681C162.385 75.424 162.636 75.7848 162.764 76.1988L163.736 79.3238C163.805 79.5465 163.94 79.7407 164.121 79.8783C164.303 80.0159 164.521 80.0898 164.745 80.0894H167.891C168.308 80.0894 168.714 80.2272 169.051 80.4831C169.388 80.739 169.639 81.0998 169.768 81.5138C169.897 81.9278 169.897 82.3737 169.768 82.7877C169.639 83.2017 169.388 83.5625 169.051 83.8184L166.506 85.75C166.324 85.8872 166.189 86.0811 166.12 86.3037C166.051 86.5263 166.051 86.7661 166.121 86.9886L167.093 90.1136C167.221 90.5276 167.221 90.9736 167.093 91.3876C166.964 91.8016 166.713 92.1624 166.376 92.4183C166.039 92.6742 165.633 92.812 165.216 92.812C164.799 92.812 164.393 92.6742 164.056 92.4183L161.511 90.487C161.33 90.349 161.112 90.2747 160.887 90.2747C160.663 90.2747 160.445 90.349 160.264 90.487L157.719 92.4183C157.383 92.6772 156.977 92.8177 156.559 92.8194ZM160.887 89.3208C161.304 89.3208 161.71 89.4591 162.047 89.7156L164.592 91.6469C164.773 91.7845 164.992 91.8586 165.216 91.8586C165.44 91.8587 165.658 91.7846 165.839 91.6471C166.02 91.5096 166.155 91.3156 166.225 91.0931C166.294 90.8705 166.294 90.6308 166.225 90.4083L165.252 87.2833C165.123 86.8693 165.122 86.4231 165.251 86.0089C165.38 85.5947 165.632 85.2339 165.969 84.9786L168.514 83.047C168.696 82.9095 168.83 82.7156 168.9 82.4931C168.969 82.2706 168.969 82.0309 168.9 81.8084C168.83 81.5859 168.695 81.392 168.514 81.2544C168.333 81.1169 168.115 81.0428 167.891 81.0428H164.745C164.328 81.0436 163.922 80.9061 163.584 80.6502C163.247 80.3942 162.996 80.0329 162.868 79.6185L161.896 76.4935C161.827 76.2709 161.692 76.077 161.511 75.9395C161.33 75.8019 161.111 75.7278 160.887 75.7278C160.663 75.7278 160.445 75.8019 160.264 75.9395C160.083 76.077 159.948 76.2709 159.879 76.4935L158.906 79.6185C158.778 80.0329 158.528 80.3942 158.19 80.6502C157.853 80.9061 157.447 81.0436 157.03 81.0428H153.884C153.66 81.0428 153.442 81.1169 153.261 81.2544C153.079 81.3919 152.945 81.5858 152.875 81.8083C152.806 82.0308 152.806 82.2705 152.875 82.493C152.944 82.7156 153.079 82.9095 153.261 83.047L155.806 84.9786C156.143 85.234 156.395 85.5947 156.524 86.0089C156.652 86.4231 156.652 86.8693 156.523 87.2833L155.55 90.4083C155.481 90.6308 155.481 90.8705 155.55 91.093C155.62 91.3155 155.754 91.5094 155.936 91.647C156.117 91.7845 156.335 91.8585 156.559 91.8585C156.783 91.8585 157.001 91.7844 157.182 91.6469L159.728 89.7156C160.064 89.4591 160.471 89.3209 160.887 89.3208Z" fill="#3F3D56"/>
<path d="M25.1012 14.3017C24.3145 14.3017 23.5599 14.6282 23.0036 15.2093C22.4473 15.7904 22.1347 16.5786 22.1347 17.4004C22.1347 18.2222 22.4473 19.0104 23.0036 19.5915C23.5599 20.1726 24.3145 20.4991 25.1012 20.4991H175.252C176.039 20.4991 176.794 20.1726 177.35 19.5915C177.906 19.0104 178.219 18.2222 178.219 17.4004C178.219 16.5786 177.906 15.7904 177.35 15.2093C176.794 14.6282 176.039 14.3017 175.252 14.3017H25.1012Z" fill="#CCCCCC"/>
<path d="M25.1012 30.5102C24.3145 30.5102 23.5599 30.8367 23.0036 31.4178C22.4473 31.9989 22.1347 32.7871 22.1347 33.6089C22.1347 34.4308 22.4473 35.2189 23.0036 35.8C23.5599 36.3812 24.3145 36.7076 25.1012 36.7076H175.252C176.039 36.7076 176.794 36.3812 177.35 35.8C177.906 35.2189 178.219 34.4308 178.219 33.6089C178.219 32.7871 177.906 31.9989 177.35 31.4178C176.794 30.8367 176.039 30.5102 175.252 30.5102H25.1012Z" fill="#CCCCCC"/>
<path d="M25.1012 46.7188C24.3145 46.7188 23.5599 47.0453 23.0036 47.6264C22.4473 48.2075 22.1347 48.9957 22.1347 49.8175C22.1347 50.6393 22.4473 51.4275 23.0036 52.0086C23.5599 52.5897 24.3145 52.9162 25.1012 52.9162H175.252C176.039 52.9162 176.794 52.5897 177.35 52.0086C177.906 51.4275 178.219 50.6393 178.219 49.8175C178.219 48.9957 177.906 48.2075 177.35 47.6264C176.794 47.0453 176.039 46.7188 175.252 46.7188H25.1012Z" fill="#CCCCCC"/>
<path d="M25.1012 14.3017C24.3145 14.3017 23.5599 14.6282 23.0036 15.2093C22.4473 15.7904 22.1347 16.5786 22.1347 17.4004C22.1347 18.2222 22.4473 19.0104 23.0036 19.5915C23.5599 20.1726 24.3145 20.4991 25.1012 20.4991H175.252C176.039 20.4991 176.794 20.1726 177.35 19.5915C177.906 19.0104 178.219 18.2222 178.219 17.4004C178.219 16.5786 177.906 15.7904 177.35 15.2093C176.794 14.6282 176.039 14.3017 175.252 14.3017H25.1012Z" fill="#CCCCCC"/>
<path d="M25.1012 30.5102C24.3145 30.5102 23.5599 30.8367 23.0036 31.4178C22.4473 31.9989 22.1347 32.7871 22.1347 33.6089C22.1347 34.4308 22.4473 35.2189 23.0036 35.8C23.5599 36.3812 24.3145 36.7076 25.1012 36.7076H175.252C176.039 36.7076 176.794 36.3812 177.35 35.8C177.906 35.2189 178.219 34.4308 178.219 33.6089C178.219 32.7871 177.906 31.9989 177.35 31.4178C176.794 30.8367 176.039 30.5102 175.252 30.5102H25.1012Z" fill="#CCCCCC"/>
<path d="M25.1012 46.7188C24.3145 46.7188 23.5599 47.0453 23.0036 47.6264C22.4473 48.2075 22.1347 48.9957 22.1347 49.8175C22.1347 50.6393 22.4473 51.4275 23.0036 52.0086C23.5599 52.5897 24.3145 52.9162 25.1012 52.9162H175.252C176.039 52.9162 176.794 52.5897 177.35 52.0086C177.906 51.4275 178.219 50.6393 178.219 49.8175C178.219 48.9957 177.906 48.2075 177.35 47.6264C176.794 47.0453 176.039 46.7188 175.252 46.7188H25.1012Z" fill="#CCCCCC"/>
</g>
<defs>
<clipPath id="clip0_12_214">
<rect width="366" height="256" fill="white"/>
</clipPath>
</defs>
</svg>
